<svg width="34" height="34" viewBox="0 0 34 34" fill="none" xmlns="http://www.w3.org/2000/svg">
<path d="M32.2 1.79999C31.2462 0.89498 29.9815 0.390457 28.6667 0.390457C27.3518 0.390457 26.0871 0.89498 25.1333 1.79999L21.1 5.81666C20.3747 6.55025 19.8941 7.49022 19.724 8.50772C19.5539 9.52521 19.7027 10.5704 20.15 11.5L16.5667 15.0833L13.2333 11.75C12.632 11.1342 11.8819 10.684 11.0556 10.443C10.2293 10.2021 9.35477 10.1785 8.51669 10.3747C7.67861 10.5708 6.90534 10.9799 6.27174 11.5625C5.63813 12.145 5.16564 12.8813 4.9 13.7L0.466666 27.0333C0.172046 27.9135 0.128254 28.8584 0.340191 29.762C0.552129 30.6657 1.01143 31.4926 1.66667 32.15C2.14199 32.6396 2.71252 33.0268 3.34311 33.2876C3.9737 33.5485 4.65101 33.6775 5.33333 33.6667C5.9003 33.6773 6.46464 33.587 7 33.4L20.3333 28.9667C21.152 28.701 21.8883 28.2285 22.4709 27.5949C23.0534 26.9613 23.4626 26.1881 23.6587 25.35C23.8548 24.5119 23.8312 23.6374 23.5903 22.8111C23.3493 21.9848 22.8992 21.2346 22.2833 20.6333L18.95 17.3L22.5333 13.7167C23.4629 14.164 24.5081 14.3128 25.5256 14.1427C26.5431 13.9726 27.4831 13.492 28.2167 12.7667L32.2333 8.73333C33.1251 7.79749 33.6198 6.55263 33.6136 5.25994C33.6074 3.96725 33.1008 2.72721 32.2 1.79999ZM19.8333 23.05C20.0317 23.2521 20.1753 23.5014 20.2505 23.7743C20.3258 24.0473 20.3303 24.3349 20.2636 24.6101C20.1969 24.8853 20.0612 25.1389 19.8693 25.3471C19.6773 25.5553 19.4355 25.7112 19.1667 25.8L5.86667 30.3333C5.57721 30.4218 5.26914 30.4297 4.97551 30.3563C4.68189 30.2829 4.41379 30.1309 4.2 29.9167C3.98576 29.7029 3.83379 29.4348 3.76038 29.1411C3.68697 28.8475 3.69491 28.5395 3.78333 28.25L8.23333 14.9167C8.29677 14.6224 8.43874 14.3507 8.64415 14.1307C8.84957 13.9106 9.11077 13.7502 9.4 13.6667C9.52741 13.6529 9.65593 13.6529 9.78333 13.6667C10.2206 13.6685 10.6396 13.8421 10.95 14.15L14.2833 17.4833L12.8333 18.9167C12.6771 19.0716 12.5531 19.2559 12.4685 19.459C12.3839 19.6621 12.3403 19.88 12.3403 20.1C12.3403 20.32 12.3839 20.5379 12.4685 20.741C12.5531 20.9441 12.6771 21.1284 12.8333 21.2833C12.9883 21.4395 13.1726 21.5635 13.3757 21.6481C13.5788 21.7328 13.7966 21.7763 14.0167 21.7763C14.2367 21.7763 14.4545 21.7328 14.6576 21.6481C14.8607 21.5635 15.0451 21.4395 15.2 21.2833L16.6333 19.8333L19.8333 23.05ZM29.8333 6.51666L25.8167 10.5333C25.5827 10.7627 25.2863 10.918 24.9646 10.9798C24.6428 11.0417 24.31 11.0073 24.0077 10.881C23.7054 10.7548 23.4469 10.5422 23.2648 10.2699C23.0826 9.99758 22.9847 9.67762 22.9833 9.34999C22.9852 8.91276 23.1588 8.49376 23.4667 8.18333L27.4833 4.14999C27.6383 3.99378 27.8226 3.86979 28.0257 3.78517C28.2288 3.70056 28.4466 3.657 28.6667 3.657C28.8867 3.657 29.1045 3.70056 29.3076 3.78517C29.5107 3.86979 29.6951 3.99378 29.85 4.14999C30.0062 4.30493 30.1302 4.48927 30.2148 4.69237C30.2994 4.89546 30.343 5.11331 30.343 5.33333C30.343 5.55335 30.2994 5.77119 30.2148 5.97429C30.1302 6.17739 30.0062 6.36172 29.85 6.51666H29.8333Z" fill="#1A1A1A"/>
</svg>
