<svg width="29" height="32" viewBox="0 0 29 32" fill="none" xmlns="http://www.w3.org/2000/svg">
<path d="M28.3661 12.3056C28.3661 13.7493 28.3893 15.1697 28.3661 16.6134C28.2962 19.3144 27.6675 21.8758 26.6662 24.3673C26.4567 24.8563 26.2005 25.3453 25.8978 25.7877C24.9897 27.1383 23.9186 28.3724 22.731 29.4435C21.9859 30.1188 21.1476 30.631 20.193 30.9338C19.215 31.2365 18.237 31.5392 17.2357 31.772C15.7688 32.1446 14.2785 32.0049 12.8115 31.7487C12.5088 31.7022 12.1828 31.6323 11.8801 31.5625C10.3666 31.2597 9.01606 30.6543 7.82851 29.6531C6.36155 28.419 4.84801 27.2081 3.84674 25.5316C2.93862 24.018 2.0305 22.5045 1.49494 20.7814C1.09909 19.4541 0.656672 18.1502 0.307394 16.8229C0.144398 16.1709 0.0279717 15.4025 0.0046865 14.6807C-0.0185987 13.563 0.0512569 12.4453 0.0745421 11.3276C0.0978273 10.4661 0.0745421 9.60451 0.0978273 8.76624C0.0978273 8.48682 0.0745421 8.2074 0.0978273 7.92798C0.144398 7.08971 0.749813 6.76372 1.44837 7.22942C1.93736 7.5787 2.40306 7.97455 2.77562 8.41697C3.52075 9.27852 4.19602 10.1866 4.89458 11.0715C5.337 11.6536 5.73285 12.259 6.17526 12.8412C6.50126 13.2603 6.8971 13.6561 7.29295 14.0054C7.94494 14.5643 8.43393 14.4944 8.87635 13.726C9.17905 13.2137 9.41191 12.6549 9.59819 12.096C10.3433 9.81408 11.0884 7.53213 11.8103 5.25018C12.276 3.78321 12.8115 2.36281 13.5101 0.988987C13.6265 0.73285 13.7662 0.499998 13.9758 0.290431C14.3949 -0.151987 15.0469 -0.0821317 15.3263 0.453428C15.4893 0.779421 15.6058 1.19855 15.6291 1.57112C15.6989 2.43267 15.6989 3.29422 15.7455 4.13249C15.8852 6.25144 16.1413 8.34711 16.6303 10.4195C16.7235 10.8386 16.8865 11.2345 17.0494 11.6303C17.3289 12.259 17.7713 12.748 18.3534 13.1206C18.726 13.3767 19.1218 13.4233 19.5177 13.1671C19.9135 12.911 20.2861 12.6316 20.6121 12.3056C21.5901 11.3509 22.4283 10.3031 23.1502 9.11552C23.8953 7.88141 24.6404 6.67058 25.3856 5.43646C25.5951 5.08718 25.828 4.7379 26.1074 4.4352C26.6895 3.8065 27.4579 3.94621 27.8072 4.7379C28.1332 5.5296 28.2263 6.41444 28.2496 7.25271C28.3428 8.90596 28.3661 10.5592 28.4359 12.2125C28.4126 12.3056 28.3893 12.3056 28.3661 12.3056Z" fill="#F15A24"/>
</svg>
