<svg width="34" height="34" viewBox="0 0 34 34" fill="none" xmlns="http://www.w3.org/2000/svg">
<path d="M20.3333 10.3333H22C22.442 10.3333 22.866 10.1577 23.1785 9.84519C23.4911 9.53263 23.6667 9.1087 23.6667 8.66668C23.6667 8.22465 23.4911 7.80073 23.1785 7.48817C22.866 7.17561 22.442 7.00001 22 7.00001H20.3333C19.8913 7.00001 19.4674 7.17561 19.1548 7.48817C18.8423 7.80073 18.6667 8.22465 18.6667 8.66668C18.6667 9.1087 18.8423 9.53263 19.1548 9.84519C19.4674 10.1577 19.8913 10.3333 20.3333 10.3333ZM20.3333 17H22C22.442 17 22.866 16.8244 23.1785 16.5119C23.4911 16.1993 23.6667 15.7754 23.6667 15.3333C23.6667 14.8913 23.4911 14.4674 23.1785 14.1548C22.866 13.8423 22.442 13.6667 22 13.6667H20.3333C19.8913 13.6667 19.4674 13.8423 19.1548 14.1548C18.8423 14.4674 18.6667 14.8913 18.6667 15.3333C18.6667 15.7754 18.8423 16.1993 19.1548 16.5119C19.4674 16.8244 19.8913 17 20.3333 17ZM12 10.3333H13.6667C14.1087 10.3333 14.5326 10.1577 14.8452 9.84519C15.1577 9.53263 15.3333 9.1087 15.3333 8.66668C15.3333 8.22465 15.1577 7.80073 14.8452 7.48817C14.5326 7.17561 14.1087 7.00001 13.6667 7.00001H12C11.558 7.00001 11.1341 7.17561 10.8215 7.48817C10.5089 7.80073 10.3333 8.22465 10.3333 8.66668C10.3333 9.1087 10.5089 9.53263 10.8215 9.84519C11.1341 10.1577 11.558 10.3333 12 10.3333ZM12 17H13.6667C14.1087 17 14.5326 16.8244 14.8452 16.5119C15.1577 16.1993 15.3333 15.7754 15.3333 15.3333C15.3333 14.8913 15.1577 14.4674 14.8452 14.1548C14.5326 13.8423 14.1087 13.6667 13.6667 13.6667H12C11.558 13.6667 11.1341 13.8423 10.8215 14.1548C10.5089 14.4674 10.3333 14.8913 10.3333 15.3333C10.3333 15.7754 10.5089 16.1993 10.8215 16.5119C11.1341 16.8244 11.558 17 12 17ZM32 30.3333H30.3333V2.00001C30.3333 1.55798 30.1578 1.13406 29.8452 0.821499C29.5326 0.508938 29.1087 0.333344 28.6667 0.333344H5.33334C4.89132 0.333344 4.46739 0.508938 4.15483 0.821499C3.84227 1.13406 3.66668 1.55798 3.66668 2.00001V30.3333H2.00001C1.55798 30.3333 1.13406 30.5089 0.821499 30.8215C0.508938 31.1341 0.333344 31.558 0.333344 32C0.333344 32.442 0.508938 32.866 0.821499 33.1785C1.13406 33.4911 1.55798 33.6667 2.00001 33.6667H32C32.442 33.6667 32.866 33.4911 33.1785 33.1785C33.4911 32.866 33.6667 32.442 33.6667 32C33.6667 31.558 33.4911 31.1341 33.1785 30.8215C32.866 30.5089 32.442 30.3333 32 30.3333ZM18.6667 30.3333H15.3333V23.6667H18.6667V30.3333ZM27 30.3333H22V22C22 21.558 21.8244 21.1341 21.5119 20.8215C21.1993 20.5089 20.7754 20.3333 20.3333 20.3333H13.6667C13.2247 20.3333 12.8007 20.5089 12.4882 20.8215C12.1756 21.1341 12 21.558 12 22V30.3333H7.00001V3.66668H27V30.3333Z" fill="#1A1A1A"/>
</svg>
